<?xml version="1.0" encoding="UTF-8" standalone="no"?>
<!-- Created with Inkscape (http://www.inkscape.org/) -->

<svg
   xmlns:dc="http://purl.org/dc/elements/1.1/"
   xmlns:cc="http://creativecommons.org/ns#"
   xmlns:rdf="http://www.w3.org/1999/02/22-rdf-syntax-ns#"
   xmlns:svg="http://www.w3.org/2000/svg"
   xmlns="http://www.w3.org/2000/svg"
   xmlns:sodipodi="http://sodipodi.sourceforge.net/DTD/sodipodi-0.dtd"
   xmlns:inkscape="http://www.inkscape.org/namespaces/inkscape"
   version="1.1"
   id="svg815"
   xml:space="preserve"
   width="356.67773"
   height="85.264"
   viewBox="0 0 356.67773 85.263998"
   sodipodi:docname="csc-imagotipo-eslogan.svg"
   inkscape:version="0.92.3 (2405546, 2018-03-11)"><metadata
     id="metadata821"><rdf:RDF><cc:Work
         rdf:about=""><dc:format>image/svg+xml</dc:format><dc:type
           rdf:resource="http://purl.org/dc/dcmitype/StillImage" /><dc:title></dc:title></cc:Work></rdf:RDF></metadata><defs
     id="defs819"><linearGradient
       x1="0"
       y1="0"
       x2="1"
       y2="0"
       gradientUnits="userSpaceOnUse"
       gradientTransform="matrix(-7.3620138,0.3987132,-0.3987132,-7.3620138,172.91797,658.63672)"
       spreadMethod="pad"
       id="linearGradient1201"><stop
         style="stop-opacity:1;stop-color:#fbc707"
         offset="0"
         id="stop1193" /><stop
         style="stop-opacity:1;stop-color:#fff200"
         offset="0.35"
         id="stop1195" /><stop
         style="stop-opacity:1;stop-color:#fff200"
         offset="0.66"
         id="stop1197" /><stop
         style="stop-opacity:1;stop-color:#fbc707"
         offset="1"
         id="stop1199" /></linearGradient><linearGradient
       x1="0"
       y1="0"
       x2="1"
       y2="0"
       gradientUnits="userSpaceOnUse"
       gradientTransform="matrix(-7.2806492,0.3943066,-0.3943066,-7.2806492,211.90234,658.60156)"
       spreadMethod="pad"
       id="linearGradient1225"><stop
         style="stop-opacity:1;stop-color:#fbc707"
         offset="0"
         id="stop1217" /><stop
         style="stop-opacity:1;stop-color:#fff200"
         offset="0.35"
         id="stop1219" /><stop
         style="stop-opacity:1;stop-color:#fff200"
         offset="0.66"
         id="stop1221" /><stop
         style="stop-opacity:1;stop-color:#fbc707"
         offset="1"
         id="stop1223" /></linearGradient><linearGradient
       x1="0"
       y1="0"
       x2="1"
       y2="0"
       gradientUnits="userSpaceOnUse"
       gradientTransform="matrix(-15.949619,0.8638023,-0.8638023,-15.949619,196.875,661.44531)"
       spreadMethod="pad"
       id="linearGradient1257"><stop
         style="stop-opacity:1;stop-color:#fbc707"
         offset="0"
         id="stop1249" /><stop
         style="stop-opacity:1;stop-color:#fff200"
         offset="0.35"
         id="stop1251" /><stop
         style="stop-opacity:1;stop-color:#fff200"
         offset="0.66"
         id="stop1253" /><stop
         style="stop-opacity:1;stop-color:#fbc707"
         offset="1"
         id="stop1255" /></linearGradient><linearGradient
       x1="0"
       y1="0"
       x2="1"
       y2="0"
       gradientUnits="userSpaceOnUse"
       gradientTransform="matrix(-5.9123325,0.3202011,-0.3202011,-5.9123325,175.82813,632.21094)"
       spreadMethod="pad"
       id="linearGradient1293"><stop
         style="stop-opacity:1;stop-color:#fbc707"
         offset="0"
         id="stop1285" /><stop
         style="stop-opacity:1;stop-color:#fff200"
         offset="0.35"
         id="stop1287" /><stop
         style="stop-opacity:1;stop-color:#fff200"
         offset="0.66"
         id="stop1289" /><stop
         style="stop-opacity:1;stop-color:#fbc707"
         offset="1"
         id="stop1291" /></linearGradient><linearGradient
       x1="0"
       y1="0"
       x2="1"
       y2="0"
       gradientUnits="userSpaceOnUse"
       gradientTransform="matrix(-5.9786034,0.3237902,-0.3237902,-5.9786034,207.55469,632.24219)"
       spreadMethod="pad"
       id="linearGradient1317"><stop
         style="stop-opacity:1;stop-color:#fbc707"
         offset="0"
         id="stop1309" /><stop
         style="stop-opacity:1;stop-color:#fff200"
         offset="0.35"
         id="stop1311" /><stop
         style="stop-opacity:1;stop-color:#fff200"
         offset="0.66"
         id="stop1313" /><stop
         style="stop-opacity:1;stop-color:#fbc707"
         offset="1"
         id="stop1315" /></linearGradient><linearGradient
       x1="0"
       y1="0"
       x2="1"
       y2="0"
       gradientUnits="userSpaceOnUse"
       gradientTransform="matrix(-12.990953,0.7035663,-0.7035663,-12.990953,195.375,629.16406)"
       spreadMethod="pad"
       id="linearGradient1349"><stop
         style="stop-opacity:1;stop-color:#fbc707"
         offset="0"
         id="stop1341" /><stop
         style="stop-opacity:1;stop-color:#fff200"
         offset="0.35"
         id="stop1343" /><stop
         style="stop-opacity:1;stop-color:#fff200"
         offset="0.66"
         id="stop1345" /><stop
         style="stop-opacity:1;stop-color:#fbc707"
         offset="1"
         id="stop1347" /></linearGradient><linearGradient
       x1="0"
       y1="0"
       x2="1"
       y2="0"
       gradientUnits="userSpaceOnUse"
       gradientTransform="matrix(21.967846,0,0,21.967846,177.73437,645.26562)"
       spreadMethod="pad"
       id="linearGradient1399"><stop
         style="stop-opacity:1;stop-color:#231f20"
         offset="0"
         id="stop1389" /><stop
         style="stop-opacity:1;stop-color:#231f20"
         offset="0.21"
         id="stop1391" /><stop
         style="stop-opacity:1;stop-color:#ffffff"
         offset="0.42"
         id="stop1393" /><stop
         style="stop-opacity:1;stop-color:#231f20"
         offset="0.76"
         id="stop1395" /><stop
         style="stop-opacity:1;stop-color:#231f20"
         offset="1"
         id="stop1397" /></linearGradient></defs><sodipodi:namedview
     pagecolor="#ffffff"
     bordercolor="#666666"
     borderopacity="1"
     objecttolerance="10"
     gridtolerance="10"
     guidetolerance="10"
     inkscape:pageopacity="0"
     inkscape:pageshadow="2"
     inkscape:window-width="1853"
     inkscape:window-height="1025"
     id="namedview817"
     showgrid="false"
     inkscape:zoom="1.5037594"
     inkscape:cx="163.3042"
     inkscape:cy="130.02968"
     inkscape:window-x="67"
     inkscape:window-y="927"
     inkscape:window-maximized="1"
     inkscape:current-layer="g823"
     fit-margin-top="0"
     fit-margin-left="0"
     fit-margin-right="0"
     fit-margin-bottom="0" /><g
     id="g823"
     inkscape:groupmode="layer"
     inkscape:label="isologo-eslogan"
     transform="matrix(1.333,0,0,-1.3333333,-219.22133,889.51064)"><path
       inkscape:connector-curvature="0"
       id="path1179"
       style="fill:#42b23c;fill-opacity:1;fill-rule:nonzero;stroke:none"
       d="m 213.0713,633.5879 v 4.164 c 0.952,-1.146 1.867,-1.969 2.736,-2.475 0.864,-0.505 1.795,-0.758 2.777,-0.758 1.044,0 1.867,0.253 2.469,0.764 0.602,0.511 0.905,1.199 0.905,2.076 0,0.71 -0.206,1.34 -0.612,1.883 -0.406,0.539 -1.373,1.318 -2.911,2.341 -2.381,1.608 -3.878,2.851 -4.484,3.733 -0.607,0.883 -0.911,1.937 -0.911,3.153 0,1.716 0.581,3.121 1.739,4.218 1.162,1.097 2.653,1.646 4.484,1.646 0.813,0 1.61,-0.123 2.402,-0.371 0.787,-0.248 1.584,-0.624 2.386,-1.14 v -3.578 c -0.925,0.78 -1.774,1.339 -2.561,1.694 -0.782,0.35 -1.563,0.528 -2.345,0.528 -0.946,0 -1.718,-0.243 -2.314,-0.732 -0.597,-0.49 -0.895,-1.119 -0.895,-1.883 0,-1.092 1.239,-2.448 3.718,-4.067 l 0.453,-0.285 c 2.016,-1.313 3.338,-2.47 3.96,-3.476 0.622,-1.001 0.936,-2.243 0.936,-3.728 0,-1.679 -0.581,-3.072 -1.749,-4.17 -1.162,-1.097 -2.654,-1.646 -4.474,-1.646 -1.132,0 -2.16,0.167 -3.071,0.506 -0.915,0.333 -1.795,0.871 -2.638,1.603 m 19.129,7.613 h 6.567 l -3.327,7.946 z m -6.949,-9.329 9.135,22.052 h 2.196 l 9.252,-22.052 h -3.117 l -2.715,6.493 h -8.98 l -2.68,-6.493 z m 21.974,0 v 22.052 h 2.622 l 13.876,-17.119 v 17.119 h 2.999 v -22.052 h -2.68 l -13.835,17.135 v -17.135 z m 49.539,5.235 v -3.562 c -1.234,-0.672 -2.494,-1.184 -3.775,-1.539 -1.28,-0.349 -2.551,-0.527 -3.806,-0.527 -1.203,0 -2.355,0.167 -3.451,0.495 -1.09,0.333 -2.129,0.823 -3.101,1.474 -1.568,1.071 -2.787,2.443 -3.656,4.105 -0.87,1.668 -1.302,3.476 -1.302,5.434 0,1.479 0.288,2.916 0.859,4.309 0.571,1.388 1.389,2.609 2.443,3.648 1.121,1.114 2.386,1.947 3.78,2.496 1.399,0.554 2.942,0.829 4.639,0.829 1.188,0 2.361,-0.14 3.528,-0.426 1.168,-0.285 2.387,-0.731 3.662,-1.339 v -3.422 c -1.337,0.759 -2.592,1.318 -3.765,1.679 -1.177,0.36 -2.319,0.543 -3.425,0.543 -2.458,0 -4.495,-0.801 -6.1,-2.405 -1.609,-1.597 -2.412,-3.61 -2.412,-6.025 0,-2.384 0.792,-4.379 2.371,-5.977 1.584,-1.604 3.57,-2.405 5.961,-2.405 1.224,0 2.469,0.215 3.724,0.645 1.255,0.431 2.53,1.087 3.826,1.97 m 3.232,-5.235 v 22.052 h 6.178 c 2.128,0 3.769,-0.527 4.926,-1.576 1.158,-1.049 1.734,-2.539 1.734,-4.46 0,-1.452 -0.32,-2.62 -0.951,-3.502 -0.634,-0.883 -1.631,-1.544 -2.999,-1.986 0.349,-0.198 0.683,-0.462 0.993,-0.796 0.312,-0.333 0.715,-0.888 1.208,-1.662 l 5.122,-8.07 h -3.647 l -3.615,5.783 c -1.086,1.743 -1.96,2.857 -2.628,3.341 -0.669,0.484 -1.466,0.727 -2.387,0.727 h -0.905 v -9.851 z m 3.029,12.497 h 2.5 c 1.404,0 2.458,0.286 3.158,0.851 0.695,0.57 1.044,1.436 1.044,2.604 0,1.199 -0.33,2.065 -0.993,2.609 -0.663,0.543 -1.732,0.812 -3.209,0.812 h -2.5 z m 14.352,9.555 h 3.014 v -22.052 h -3.014 z m 6.352,-20.336 v 4.164 c 0.952,-1.146 1.867,-1.969 2.738,-2.475 0.863,-0.505 1.793,-0.758 2.776,-0.758 1.044,0 1.867,0.253 2.47,0.764 0.6,0.511 0.904,1.199 0.904,2.076 0,0.71 -0.206,1.34 -0.612,1.883 -0.407,0.539 -1.373,1.318 -2.911,2.341 -2.381,1.608 -3.877,2.851 -4.485,3.733 -0.606,0.883 -0.91,1.937 -0.91,3.153 0,1.716 0.581,3.121 1.738,4.218 1.162,1.097 2.655,1.646 4.486,1.646 0.812,0 1.608,-0.123 2.401,-0.371 0.787,-0.248 1.583,-0.624 2.387,-1.14 v -3.578 c -0.927,0.78 -1.776,1.339 -2.563,1.694 -0.781,0.35 -1.562,0.528 -2.345,0.528 -0.946,0 -1.716,-0.243 -2.314,-0.732 -0.596,-0.49 -0.895,-1.119 -0.895,-1.883 0,-1.092 1.241,-2.448 3.719,-4.067 l 0.452,-0.285 c 2.016,-1.313 3.338,-2.47 3.961,-3.476 0.622,-1.001 0.935,-2.243 0.935,-3.728 0,-1.679 -0.581,-3.072 -1.748,-4.17 -1.161,-1.097 -2.654,-1.646 -4.475,-1.646 -1.131,0 -2.16,0.167 -3.07,0.506 -0.916,0.333 -1.795,0.871 -2.639,1.603 m 20.817,-1.716 v 19.185 h -7.746 v 2.867 h 18.489 v -2.867 h -7.745 v -19.185 z m 15.091,11.002 c 0,-1.125 0.202,-2.195 0.602,-3.212 0.401,-1.022 0.982,-1.926 1.733,-2.712 0.735,-0.79 1.594,-1.393 2.587,-1.818 0.988,-0.425 2.021,-0.64 3.096,-0.64 1.102,0 2.14,0.21 3.111,0.624 0.967,0.414 1.837,1.028 2.598,1.834 0.751,0.786 1.332,1.69 1.738,2.712 0.406,1.017 0.613,2.087 0.613,3.212 0,1.124 -0.201,2.189 -0.603,3.19 -0.4,1.006 -0.997,1.921 -1.778,2.749 -0.752,0.813 -1.616,1.426 -2.594,1.851 -0.971,0.425 -2,0.64 -3.085,0.64 -1.05,0 -2.057,-0.215 -3.04,-0.645 -0.977,-0.431 -1.861,-1.044 -2.643,-1.846 -0.751,-0.764 -1.332,-1.662 -1.733,-2.695 -0.4,-1.028 -0.602,-2.109 -0.602,-3.244 m -3.21,0.113 c 0,1.469 0.289,2.9 0.859,4.282 0.571,1.388 1.389,2.615 2.443,3.675 1.075,1.081 2.289,1.904 3.648,2.475 1.351,0.565 2.781,0.85 4.278,0.85 1.522,0 2.974,-0.285 4.347,-0.861 1.366,-0.57 2.575,-1.394 3.619,-2.464 1.096,-1.114 1.919,-2.356 2.474,-3.718 0.551,-1.366 0.829,-2.851 0.829,-4.449 0,-1.501 -0.284,-2.943 -0.855,-4.326 -0.564,-1.382 -1.373,-2.598 -2.417,-3.647 -1.095,-1.092 -2.313,-1.921 -3.667,-2.48 -1.352,-0.565 -2.798,-0.845 -4.33,-0.845 -1.497,0 -2.932,0.291 -4.305,0.866 -1.368,0.582 -2.577,1.399 -3.621,2.459 -1.085,1.103 -1.908,2.351 -2.463,3.734 -0.561,1.388 -0.839,2.873 -0.839,4.449 m 9.191,13.062 3.148,5.488 h 2.684 l -4.232,-5.488 z m 19.458,-14.466 v -6.844 h 4.013 c 1.465,0 2.534,0.269 3.213,0.813 0.679,0.543 1.018,1.388 1.018,2.544 0,1.2 -0.38,2.083 -1.136,2.642 -0.76,0.565 -1.955,0.845 -3.58,0.845 z m -2.983,-9.711 v 22.052 h 6.163 c 2.102,0 3.722,-0.5 4.859,-1.495 1.143,-1.001 1.712,-2.421 1.712,-4.256 0,-1.135 -0.257,-2.082 -0.766,-2.841 -0.513,-0.753 -1.296,-1.339 -2.349,-1.748 1.531,-0.377 2.719,-1.065 3.558,-2.066 0.838,-0.995 1.26,-2.211 1.26,-3.642 0,-1.829 -0.643,-3.287 -1.924,-4.374 -1.28,-1.087 -3.014,-1.63 -5.205,-1.63 z m 2.983,12.594 h 2.037 c 1.538,0 2.674,0.291 3.42,0.866 0.746,0.582 1.116,1.464 1.116,2.653 0,1.081 -0.293,1.867 -0.88,2.362 -0.591,0.495 -1.527,0.742 -2.813,0.742 h -2.88 z m 18.712,-3.265 h 6.568 l -3.328,7.946 z m -6.947,-9.329 9.133,22.052 h 2.197 l 9.253,-22.052 h -3.118 l -2.715,6.493 h -8.981 l -2.679,-6.493 z m 22.064,0 v 22.052 h 2.983 v -19.217 h 10.036 v -2.835 z"
       inkscape:label="logotipo" /><g
       id="g1743"
       inkscape:label="banderola-superior"><path
         inkscape:connector-curvature="0"
         id="path1203"
         style="fill:url(#linearGradient1201);stroke:none"
         d="m 164.416,661.391 4.189,-2.55 c 0,0 -2.035,-2.931 -2.275,-3.142 v 0 c 0.456,0.099 7.68,0.315 7.68,0.315 v 0 c 0,0 -0.54,4.543 -2.297,5.562 v 0 c -0.522,0.304 -1.379,0.41 -2.325,0.41 v 0 c -2.236,0 -4.972,-0.595 -4.972,-0.595 m 1.891,-5.701 c 0.002,-0.005 0.01,-0.001 0.023,0.009 v 0 c -0.016,-0.003 -0.023,-0.007 -0.023,-0.009" /><path
         inkscape:connector-curvature="0"
         id="path1227"
         style="fill:url(#linearGradient1225);stroke:none"
         d="m 205.744,661.535 c -1.757,-1.02 -2.298,-5.563 -2.298,-5.563 v 0 c 0,0 7.222,-0.216 7.68,-0.315 v 0 c -0.242,0.212 -2.275,3.143 -2.275,3.143 v 0 l 4.19,2.55 c 0,0 -2.736,0.595 -4.973,0.595 v 0 c -0.946,0 -1.802,-0.108 -2.324,-0.41 m 5.405,-5.888 c 0.002,0.004 -0.006,0.007 -0.023,0.01 v 0 c 0.013,-0.011 0.021,-0.014 0.023,-0.01" /><path
         d="m 173.6045,662.04 0.405,-6.027 -2.344,0.617 z"
         style="fill:#f0c90a;fill-opacity:1;fill-rule:nonzero;stroke:none"
         id="path1231"
         inkscape:connector-curvature="0" /><path
         d="m 203.9834,662.355 -0.405,-6.027 2.343,0.617 z"
         style="fill:#f0c90a;fill-opacity:1;fill-rule:nonzero;stroke:none"
         id="path1235"
         inkscape:connector-curvature="0" /><path
         inkscape:connector-curvature="0"
         id="path1259"
         style="fill:url(#linearGradient1257);stroke:none"
         d="m 169.929,662.665 1.737,-6.034 c 9.99,4.799 22.876,5.458 34.314,0.372 v 0 l 1.898,5.581 c -5.923,3.055 -12.48,4.548 -19.007,4.549 v 0 c -6.566,0 -13.103,-1.512 -18.942,-4.468" /></g><g
       id="g1736"
       inkscape:label="banderola-inferior"
       style="display:inline"><path
         inkscape:connector-curvature="0"
         id="path1295"
         style="fill:url(#linearGradient1293);stroke:none"
         d="m 170.523,635.175 c -0.001,-0.003 0.004,-0.005 0.018,-0.008 v 0 c -0.007,0.006 -0.014,0.01 -0.015,0.01 v 0 c -0.001,0 -0.002,-10e-4 -0.003,-0.002 m 1.867,-2.56 -3.403,-2.071 c 0,0 4.499,-0.978 5.925,-0.15 v 0 c 1.427,0.828 1.865,4.517 1.865,4.517 v 0 c 0,0 -5.865,0.176 -6.236,0.256 v 0 c 0.194,-0.171 1.849,-2.552 1.849,-2.552" /><path
         inkscape:connector-curvature="0"
         id="path1319"
         style="fill:url(#linearGradient1317);stroke:none"
         d="m 206.915,635.2 c 0.012,0.003 0.018,0.006 0.017,0.008 v 0 c 0,10e-4 -10e-4,0.002 -0.002,0.002 v 0 c -0.003,0 -0.008,-0.004 -0.015,-0.01 m -6.237,-0.255 c 0,0 0.44,-3.69 1.866,-4.518 v 0 c 1.427,-0.828 5.925,0.152 5.925,0.152 v 0 l -3.401,2.07 c 0,0 1.65,2.378 1.847,2.551 v 0 c -0.371,-0.08 -6.237,-0.255 -6.237,-0.255" /><path
         d="m 176.4482,630.0176 0.329,4.894 -1.903,-0.501 z"
         style="fill:#f0c90a;fill-opacity:1;fill-rule:nonzero;stroke:none"
         id="path1323"
         inkscape:connector-curvature="0" /><path
         d="m 201.1152,629.7622 -0.329,4.893 1.903,-0.5 z"
         style="fill:#f0c90a;fill-opacity:1;fill-rule:nonzero;stroke:none"
         id="path1327"
         inkscape:connector-curvature="0" /><path
         inkscape:connector-curvature="0"
         id="path1351"
         style="display:inline;fill:url(#linearGradient1349);stroke:none"
         d="m 173.463,629.509 c 9.454,-4.784 21.165,-4.908 30.814,0.066 v 0 l -1.541,4.533 c -9.286,-4.129 -19.75,-3.594 -27.862,0.303 v 0 z" /></g><g
       id="g1749"
       inkscape:label="escudo"><path
         inkscape:label="escudo-blanco"
         d="m 188.6182,647.293 8.032,-5.086 c -1.973,-3.268 -4.637,-6.532 -7.985,-8.841 -3.074,2.237 -5.714,5.25 -7.711,8.771 z"
         style="display:inline;fill:#ffffff;fill-opacity:1;fill-rule:nonzero;stroke:none"
         id="path1367"
         inkscape:connector-curvature="0" /><path
         inkscape:label="escudo-rojo"
         d="m 188.5757,657.1211 v -9.852 l -7.622,-5.132 c -2.277,4.28 -3.178,9.294 -2.602,14.465 2.912,-1.522 6.233,-1.647 10.224,0.519"
         style="fill:#c51e24;fill-opacity:1;fill-rule:nonzero;stroke:none"
         id="path1371"
         inkscape:connector-curvature="0" /><path
         inkscape:label="escudo-azul"
         d="m 188.5781,657.145 -0.002,-9.876 7.913,-4.981 c 2.278,4.281 3.436,9.262 2.86,14.433 -2.912,-1.522 -6.78,-1.742 -10.771,0.424"
         style="display:inline;fill:#254488;fill-opacity:1;fill-rule:nonzero;stroke:none"
         id="path1375"
         inkscape:connector-curvature="0" /><path
         inkscape:label="escudo-borde"
         inkscape:connector-curvature="0"
         id="path1401"
         style="display:inline;fill:url(#linearGradient1399);stroke:none"
         d="m 177.805,657.514 c -0.125,-5.388 0.587,-9.929 2.277,-14.091 v 0 c 1.885,-4.645 5.432,-7.569 8.505,-10.772 v 0 c 3.909,3.813 6.726,6.083 8.556,10.011 v 0 c 1.95,4.187 2.537,9.043 2.563,14.721 v 0 c -3.82,-2.464 -7.98,-2.044 -11.14,0.434 v 0 c -3.515,-2.575 -7.691,-2.469 -10.761,-0.303 m 10.771,-0.393 c 2.862,-2.277 7.171,-2.946 10.633,-0.682 v 0 c -0.168,-5.216 -0.773,-9.926 -2.539,-13.772 v 0 c -1.658,-3.609 -4.311,-5.838 -8.076,-8.991 v 0 c -2.784,2.941 -5.917,5.308 -7.879,9.463 v 0 c -1.823,3.867 -2.186,8.421 -2.363,13.462 v 0 c 1.284,-0.92 2.883,-1.383 4.546,-1.383 v 0 c 1.939,0 3.964,0.63 5.678,1.903" /></g><g
       id="g1729"
       inkscape:label="pinos"><path
         d="m 183.7578,653.8022 c 2.023,0 3.663,-1.644 3.663,-3.672 0,-2.029 -1.64,-3.673 -3.663,-3.673 -2.023,0 -3.663,1.644 -3.663,3.673 0,2.028 1.64,3.672 3.663,3.672 z"
         style="fill:none;stroke:#b4a613;stroke-width:0.29699999;stroke-linecap:butt;stroke-linejoin:miter;stroke-miterlimit:22.9260006;stroke-dasharray:none;stroke-opacity:1"
         id="path1413"
         inkscape:connector-curvature="0" /><path
         d="m 183.7578,653.7925 c 2.018,0 3.654,-1.64 3.654,-3.663 0,-2.023 -1.636,-3.662 -3.654,-3.662 -2.018,0 -3.653,1.639 -3.653,3.662 0,2.023 1.635,3.663 3.653,3.663"
         style="fill:#f5ef03;fill-opacity:1;fill-rule:nonzero;stroke:none"
         id="path1417"
         inkscape:connector-curvature="0" /><path
         d="m 182.6499,648.4941 v -0.787 h -0.854 v 0.787 h -1.154 l 0.785,2.029 0.784,2.029 0.785,-2.029 0.762,-1.969 0.761,1.969 0.785,2.029 0.785,-2.029 0.785,-2.029 h -1.235 v -0.787 h -0.854 v 0.787 h -1.004 -0.046 z"
         style="fill:#42b23c;fill-opacity:1;fill-rule:nonzero;stroke:none"
         id="path1421"
         inkscape:connector-curvature="0" /></g><g
       id="g1724"
       inkscape:label="anillos"
       style="display:inline"><path
         d="m 188.8052,643.9048 c 1.176,0 2.129,-0.955 2.129,-2.134 0,-1.179 -0.953,-2.134 -2.129,-2.134 -1.176,0 -2.129,0.955 -2.129,2.134 0,1.179 0.953,2.134 2.129,2.134 m 0,-0.593 c -0.813,0 -1.472,-0.69 -1.472,-1.541 0,-0.852 0.659,-1.542 1.472,-1.542 0.813,0 1.472,0.69 1.472,1.542 0,0.851 -0.659,1.541 -1.472,1.541"
         style="fill:#deddde;fill-opacity:1;fill-rule:nonzero;stroke:none"
         id="path1433"
         inkscape:connector-curvature="0" /><path
         d="m 187.9565,642.0273 c -1.176,0 -2.129,-0.955 -2.129,-2.134 0,-1.179 0.953,-2.134 2.129,-2.134 1.176,0 2.129,0.955 2.129,2.134 0,1.179 -0.953,2.134 -2.129,2.134 m 0,-0.593 c 0.813,0 1.472,-0.69 1.472,-1.541 0,-0.852 -0.659,-1.542 -1.472,-1.542 -0.813,0 -1.472,0.69 -1.472,1.542 0,0.851 0.659,1.541 1.472,1.541"
         style="fill:#254488;fill-opacity:1;fill-rule:nonzero;stroke:none"
         id="path1437"
         inkscape:connector-curvature="0" /><path
         d="m 189.9233,642.0547 c -1.176,0 -2.129,-0.955 -2.129,-2.134 0,-1.179 0.953,-2.135 2.129,-2.135 1.176,0 2.129,0.956 2.129,2.135 0,1.179 -0.953,2.134 -2.129,2.134 m 0,-0.593 c 0.813,0 1.472,-0.69 1.472,-1.541 0,-0.852 -0.659,-1.542 -1.472,-1.542 -0.813,0 -1.472,0.69 -1.472,1.542 0,0.851 0.659,1.541 1.472,1.541"
         style="fill:#c51e24;fill-opacity:1;fill-rule:nonzero;stroke:none"
         id="path1441"
         inkscape:connector-curvature="0" /><path
         d="m 187.9565,642.0273 c -1.176,0 -2.129,-0.955 -2.129,-2.134 0,-1.179 0.953,-2.134 2.129,-2.134 1.176,0 2.129,0.955 2.129,2.134 0,1.179 -0.953,2.134 -2.129,2.134 m 0,-0.593 c 0.813,0 1.472,-0.69 1.472,-1.541 0,-0.852 -0.659,-1.542 -1.472,-1.542 -0.813,0 -1.472,0.69 -1.472,1.542 0,0.851 0.659,1.541 1.472,1.541"
         style="fill:#254488;fill-opacity:1;fill-rule:nonzero;stroke:none"
         id="path1445"
         inkscape:connector-curvature="0" /><path
         d="m 188.8052,639.6367 c 0.953,0 1.76,0.628 2.031,1.493 -0.172,0.142 -0.374,0.246 -0.596,0.297 -0.149,-0.686 -0.735,-1.197 -1.435,-1.197 -0.662,0 -1.222,0.457 -1.407,1.087 -0.209,-0.091 -0.394,-0.231 -0.541,-0.408 0.33,-0.75 1.078,-1.272 1.948,-1.272 m -1.882,2.118 c -0.085,0.047 -0.165,0.1 -0.242,0.158 -0.003,-0.047 -0.005,-0.094 -0.005,-0.142 0,-0.058 0.003,-0.116 0.007,-0.172 0.076,0.057 0.156,0.11 0.24,0.156"
         style="fill:#deddde;fill-opacity:1;fill-rule:nonzero;stroke:none"
         id="path1449"
         inkscape:connector-curvature="0" /></g><g
       id="g1717"
       style="display:inline"
       inkscape:label="orbe"><path
         d="m 193.4932,653.0078 c 1.796,0 3.252,-1.02 3.252,-2.279 0,-1.258 -1.456,-2.279 -3.252,-2.279 -1.796,0 -3.252,1.021 -3.252,2.279 0,1.259 1.456,2.279 3.252,2.279"
         style="fill:#ffffff;fill-opacity:1;fill-rule:nonzero;stroke:none"
         id="path1453"
         inkscape:connector-curvature="0" /><path
         d="m 193.4932,653.0078 c 1.796,0 3.252,-1.02 3.252,-2.279 0,-1.258 -1.456,-2.279 -3.252,-2.279 -1.796,0 -3.252,1.021 -3.252,2.279 0,1.259 1.456,2.279 3.252,2.279 z"
         style="fill:none;stroke:#231f20;stroke-width:0.15899999;stroke-linecap:butt;stroke-linejoin:miter;stroke-miterlimit:22.9260006;stroke-dasharray:none;stroke-opacity:1"
         id="path1457"
         inkscape:connector-curvature="0" /><path
         d="m 193.4932,653.0068 c 1.378,0 2.495,-1.021 2.495,-2.278 0,-1.258 -1.117,-2.277 -2.495,-2.277 -1.378,0 -2.495,1.019 -2.495,2.277 0,1.257 1.117,2.278 2.495,2.278 z m -3.242,-2.407 h 6.486"
         style="fill:none;stroke:#231f20;stroke-width:0.119;stroke-linecap:butt;stroke-linejoin:miter;stroke-miterlimit:22.9260006;stroke-dasharray:none;stroke-opacity:1"
         id="path1461"
         inkscape:connector-curvature="0" /><path
         d="m 193.4941,653.0029 v -4.548"
         style="fill:none;stroke:#231f20;stroke-width:0.15899999;stroke-linecap:butt;stroke-linejoin:miter;stroke-miterlimit:22.9260006;stroke-dasharray:none;stroke-opacity:1"
         id="path1465"
         inkscape:connector-curvature="0" /><path
         d="m 190.5205,649.8125 c 0,0 -0.31,0.225 -0.31,-0.012 0,-0.237 0.05,-0.86 0.268,-1.079 0.219,-0.219 0.926,-0.26 0.987,-0.672 0.061,-0.413 0.146,-0.73 0.146,-0.73 l 1.415,0.166 c 0,0 -0.63,0.626 -0.561,1.086 -0.52,-0.025 -1.773,0.671 -1.945,1.241"
         style="fill:#231f20;fill-opacity:1;fill-rule:nonzero;stroke:none"
         id="path1477"
         inkscape:connector-curvature="0" /><path
         d="m 196.396,649.7969 c 0,0 0.177,0.225 0.31,-0.012 0.134,-0.237 0.167,-0.86 -0.051,-1.079 -0.218,-0.219 -1.063,-0.454 -1.204,-0.672 -0.142,-0.219 -0.146,-0.73 -0.146,-0.73 l -1.248,0.082 c 0,0 0.463,0.71 0.394,1.17 0.519,-0.025 1.773,0.671 1.945,1.241"
         style="fill:#231f20;fill-opacity:1;fill-rule:nonzero;stroke:none"
         id="path1481"
         inkscape:connector-curvature="0" /><path
         d="m 190.8257,652.0303 h 5.358 m -4.844,-3.008 h 4.329"
         style="fill:none;stroke:#231f20;stroke-width:0.119;stroke-linecap:butt;stroke-linejoin:miter;stroke-miterlimit:22.9260006;stroke-dasharray:none;stroke-opacity:1"
         id="path1485"
         inkscape:connector-curvature="0" /><path
         d="m 191.9946,648.7397 -0.016,0.401 -0.092,0.014 -10e-4,1.297 0.044,0.277 -0.268,0.117 -0.125,0.305 0.009,0.69 0.134,0.08 -0.036,0.162 -0.009,0.188 0.045,0.134 0.179,0.045 0.071,-0.107 0.027,-0.117 0.027,-0.412 0.438,-0.081 c 0.01,0.216 -0.047,0.371 -0.021,0.507 0.05,0.266 0.177,0.295 0.319,0.26 0.103,-0.025 0.122,-0.041 0.179,-0.202 0.057,-0.16 0.001,-0.31 0.015,-0.592 l 0.259,0.045 0.125,0.108 0.054,0.188 -0.036,0.242 0.045,0.215 0.125,0.072 0.232,-0.027 0.09,-0.081 -0.036,-0.278 -0.045,-0.251 0.197,-0.08 0.268,-0.189 0.143,-0.206 0.036,-1.398 0.089,-0.009 c 0.041,0.344 -0.098,0.452 0.274,0.443 -0.38,1.11 0.875,0.78 0.329,0.029 0.476,-0.023 0.327,-0.596 0.336,-1.189 l -0.125,-0.009 -0.045,-0.349 -0.036,-0.135 -0.125,-0.071 -0.018,0.17 h -0.205 l -0.009,-0.251 -0.188,0.009 -0.009,0.197 -0.161,0.009 0.018,0.43 0.071,0.171 0.036,0.439 h -0.17 l -0.143,-0.063 -0.134,0.009 -0.107,-0.009 -0.018,-1.308 -0.322,-0.027 -0.053,0.448 -0.161,0.027 -0.036,-0.467 -0.34,0.019 0.021,0.69 -0.101,0.582 -0.25,-0.013 0.062,0.085 -0.125,-0.17 -0.089,-0.216 0.009,-0.349 -0.009,-0.565 -0.143,0.018 -0.054,0.493 -0.25,0.027 -0.018,-0.475 z m 1.871,1.793 0.012,-0.481 0.226,0.008 -0.005,0.458 z m -1.026,0.443 0.008,-0.234 h 0.111 l 0.002,0.119 v -10e-4 l 0.119,10e-4 0.005,0.236 -0.124,-0.001 v -0.118 z m 0.003,-0.688 0.007,-0.234 h 0.111 l 0.006,0.244 z"
         style="fill:#231f20;fill-opacity:1;fill-rule:nonzero;stroke:none"
         id="path1497"
         inkscape:connector-curvature="0" /></g><path
       inkscape:connector-curvature="0"
       id="path1525"
       style="display:inline;fill:#231f20;fill-opacity:1;fill-rule:nonzero;stroke:none"
       d="m 248.0967,615.896 c 0.207,0.338 0.31,0.609 0.31,0.813 0,0.383 -0.053,0.681 -0.157,0.893 -0.105,0.213 -0.223,0.319 -0.355,0.319 -0.15,0 -0.341,-0.123 -0.575,-0.368 -0.233,-0.246 -0.772,-0.859 -1.616,-1.841 -0.754,-0.862 -1.377,-1.564 -1.868,-2.106 -0.491,-0.542 -1.036,-1.112 -1.634,-1.711 -0.599,-0.598 -1.216,-1.17 -1.85,-1.715 -0.551,-0.479 -0.91,-0.782 -1.078,-0.911 -0.167,-0.129 -0.341,-0.193 -0.521,-0.193 -0.197,0 -0.296,0.104 -0.296,0.314 0,0.162 0.069,0.353 0.207,0.575 0.137,0.221 0.467,0.715 0.987,1.481 0.192,0.288 0.378,0.551 0.557,0.791 0.18,0.239 0.409,0.537 0.687,0.893 0.279,0.356 0.554,0.722 0.826,1.096 0.273,0.374 0.478,0.669 0.615,0.884 0.378,0.557 0.647,1.01 0.809,1.361 0.161,0.35 0.242,0.845 0.242,1.486 0,0.293 -0.088,0.504 -0.265,0.633 -0.177,0.129 -0.456,0.193 -0.839,0.193 -0.515,0 -1.168,-0.099 -1.958,-0.296 -0.79,-0.198 -1.56,-0.479 -2.308,-0.844 -0.748,-0.366 -1.338,-0.788 -1.769,-1.267 -0.156,-0.173 -0.334,-0.435 -0.534,-0.785 -0.201,-0.351 -0.364,-0.689 -0.49,-1.015 -0.125,-0.326 -0.188,-0.561 -0.188,-0.705 0,-0.102 0.04,-0.186 0.121,-0.251 0.081,-0.066 0.181,-0.099 0.301,-0.099 0.203,0 0.555,0.1 1.055,0.301 0.5,0.2 1.007,0.462 1.522,0.785 0.688,0.437 1.251,0.774 1.688,1.011 0.437,0.236 0.789,0.407 1.055,0.511 0.267,0.105 0.457,0.158 0.571,0.158 0.095,0 0.143,-0.045 0.143,-0.135 0,-0.126 -0.176,-0.416 -0.53,-0.871 -0.353,-0.455 -0.99,-1.236 -1.912,-2.344 -0.569,-0.676 -1.048,-1.299 -1.437,-1.868 -0.389,-0.569 -0.68,-1.067 -0.871,-1.495 -0.192,-0.428 -0.287,-0.804 -0.287,-1.127 0,-0.503 0.116,-0.892 0.35,-1.167 0.233,-0.276 0.527,-0.413 0.88,-0.413 0.227,0 0.437,0.052 0.628,0.157 0.192,0.105 0.383,0.248 0.575,0.431 0.192,0.182 0.404,0.384 0.638,0.606 0.981,0.904 1.932,1.838 2.851,2.802 0.919,0.964 2.064,2.194 3.435,3.69 -1.168,-1.688 -2.036,-3.065 -2.605,-4.13 -0.568,-1.066 -0.853,-1.889 -0.853,-2.47 0,-0.97 0.467,-1.454 1.401,-1.454 0.784,0 2.018,0.859 3.7,2.577 l 0.018,0.619 c -1.455,-1.125 -2.389,-1.688 -2.802,-1.688 -0.389,0 -0.584,0.222 -0.584,0.665 0,0.239 0.101,0.606 0.301,1.1 0.201,0.494 0.502,1.091 0.903,1.791 0.401,0.701 0.895,1.482 1.481,2.344 0.677,0.988 1.118,1.651 1.325,1.989 m 5.734,-4.01 c 0,0.27 -0.047,0.536 -0.14,0.8 -0.092,0.263 -0.187,0.395 -0.282,0.395 -0.21,0 -0.473,-0.111 -0.791,-0.332 -0.568,-0.378 -1.076,-0.77 -1.522,-1.177 -0.446,-0.407 -0.832,-0.798 -1.158,-1.172 -0.327,-0.374 -0.593,-0.676 -0.799,-0.907 -0.207,-0.23 -0.346,-0.345 -0.418,-0.345 -0.114,0 -0.171,0.086 -0.171,0.26 0,0.311 0.473,0.991 1.419,2.038 0.144,0.156 0.238,0.261 0.283,0.315 0.045,0.054 0.085,0.113 0.121,0.179 0.036,0.066 0.054,0.129 0.054,0.189 0,0.138 -0.058,0.239 -0.175,0.305 -0.117,0.066 -0.271,0.099 -0.462,0.099 -0.276,0 -0.563,-0.148 -0.862,-0.444 -0.3,-0.297 -0.656,-0.762 -1.069,-1.397 -0.222,-0.341 -0.37,-0.605 -0.444,-0.79 -0.075,-0.186 -0.113,-0.443 -0.113,-0.772 0,-0.533 0.081,-1 0.243,-1.401 0.161,-0.401 0.338,-0.602 0.53,-0.602 0.125,0 0.249,0.061 0.372,0.184 0.123,0.123 0.317,0.362 0.584,0.719 0.266,0.356 0.516,0.679 0.75,0.969 0.233,0.291 0.517,0.598 0.853,0.921 0.515,0.515 0.943,0.859 1.284,1.033 -0.282,-0.473 -0.53,-0.897 -0.745,-1.271 -0.216,-0.374 -0.376,-0.662 -0.481,-0.862 -0.105,-0.201 -0.187,-0.394 -0.247,-0.579 -0.06,-0.186 -0.09,-0.375 -0.09,-0.566 0,-0.647 0.246,-0.97 0.737,-0.97 0.287,0 0.658,0.186 1.113,0.557 0.455,0.371 1.108,0.976 1.958,1.814 v 0.619 c -0.593,-0.467 -1.028,-0.791 -1.307,-0.974 -0.278,-0.183 -0.504,-0.274 -0.678,-0.274 -0.209,0 -0.314,0.129 -0.314,0.386 0,0.461 0.527,1.278 1.581,2.452 0.257,0.269 0.386,0.47 0.386,0.601 m 0.583,-1.4 c -0.155,-0.198 -0.26,-0.391 -0.314,-0.58 -0.054,-0.188 -0.081,-0.423 -0.081,-0.705 0,-0.389 0.077,-0.764 0.229,-1.126 0.153,-0.363 0.328,-0.658 0.526,-0.885 0.197,-0.228 0.362,-0.341 0.493,-0.341 0.276,0 0.626,0.205 1.051,0.615 0.425,0.41 1.075,1.1 1.949,2.07 -0.342,-0.898 -0.512,-1.584 -0.512,-2.057 0,-0.299 0.049,-0.525 0.148,-0.678 0.099,-0.152 0.265,-0.229 0.498,-0.229 0.653,0 1.736,0.841 3.251,2.524 v 0.547 c -0.892,-0.784 -1.548,-1.176 -1.966,-1.176 -0.408,0 -0.611,0.222 -0.611,0.665 0,0.269 0.058,0.496 0.175,0.682 0.117,0.186 0.32,0.475 0.611,0.867 0.29,0.392 0.435,0.66 0.435,0.803 0,0.072 -0.018,0.154 -0.054,0.247 -0.036,0.093 -0.087,0.214 -0.152,0.364 -0.066,0.15 -0.12,0.272 -0.162,0.368 0.209,0.072 0.356,0.133 0.44,0.184 0.084,0.051 0.126,0.13 0.126,0.238 0,0.066 -0.032,0.168 -0.095,0.306 -0.062,0.137 -0.148,0.258 -0.256,0.363 -0.107,0.105 -0.224,0.157 -0.35,0.157 -0.467,0 -1.128,-0.2 -1.984,-0.601 -0.856,-0.401 -1.739,-1.015 -2.649,-1.841 -0.342,-0.323 -0.59,-0.584 -0.746,-0.781 m 3.17,-0.66 c -0.521,-0.596 -1.095,-1.08 -1.724,-1.451 -0.168,-0.084 -0.284,-0.125 -0.35,-0.125 -0.114,0 -0.204,0.061 -0.27,0.184 -0.065,0.122 -0.098,0.28 -0.098,0.471 0,0.527 0.33,1.039 0.992,1.536 0.661,0.497 1.77,1.101 3.327,1.814 -0.73,-1.024 -1.356,-1.834 -1.877,-2.429 m 16.703,-3.121 c -1.102,-0.676 -2.087,-1.015 -2.955,-1.015 -0.401,0 -0.744,0.09 -1.028,0.27 -0.284,0.179 -0.5,0.434 -0.646,0.763 -0.147,0.329 -0.22,0.739 -0.22,1.23 0,0.85 0.299,1.835 0.898,2.955 0.598,1.119 1.345,2.204 2.24,3.255 0.895,1.051 1.769,1.916 2.622,2.595 0.853,0.679 1.489,1.019 1.908,1.019 0.15,0 0.262,-0.046 0.337,-0.139 0.075,-0.093 0.112,-0.226 0.112,-0.4 0,-0.419 -0.202,-0.956 -0.606,-1.611 -0.404,-0.656 -0.848,-1.256 -1.333,-1.801 -0.485,-0.545 -0.778,-0.817 -0.88,-0.817 -0.036,0 -0.054,0.024 -0.054,0.072 0,0.03 0.031,0.11 0.094,0.242 0.063,0.132 0.094,0.225 0.094,0.279 0,0.036 -0.021,0.054 -0.062,0.054 -0.084,0 -0.34,-0.203 -0.768,-0.607 -0.428,-0.404 -0.823,-0.848 -1.186,-1.333 -0.362,-0.485 -0.543,-0.898 -0.543,-1.239 0,-0.186 0.079,-0.352 0.238,-0.499 0.159,-0.147 0.331,-0.22 0.517,-0.22 0.275,0 0.725,0.244 1.351,0.732 0.625,0.488 1.283,1.118 1.971,1.89 0.688,0.773 1.263,1.573 1.724,2.402 0.461,0.83 0.692,1.582 0.692,2.259 0,0.359 -0.057,0.676 -0.171,0.952 -0.114,0.275 -0.275,0.485 -0.485,0.628 -0.21,0.144 -0.464,0.216 -0.763,0.216 -0.294,0 -0.663,-0.075 -1.109,-0.225 -0.446,-0.149 -0.93,-0.377 -1.45,-0.682 -0.521,-0.305 -1.102,-0.726 -1.743,-1.262 -0.64,-0.536 -1.29,-1.172 -1.948,-1.908 -0.635,-0.712 -1.187,-1.392 -1.657,-2.038 -0.47,-0.647 -0.867,-1.274 -1.19,-1.882 -0.323,-0.607 -0.57,-1.209 -0.741,-1.805 -0.17,-0.595 -0.256,-1.16 -0.256,-1.692 0,-0.677 0.119,-1.262 0.355,-1.756 0.237,-0.494 0.587,-0.869 1.051,-1.127 0.464,-0.257 1.019,-0.386 1.666,-0.386 0.748,0 1.523,0.196 2.325,0.588 0.803,0.392 1.624,0.952 2.465,1.679 0.841,0.728 1.765,1.651 2.771,2.771 v 0.583 c -1.323,-1.317 -2.536,-2.313 -3.637,-2.99 m 8.818,2.591 c -0.078,-0.057 -0.166,-0.111 -0.265,-0.162 -0.099,-0.051 -0.199,-0.076 -0.301,-0.076 h -0.134 l -0.162,0.161 c 0.233,0.383 0.418,0.794 0.552,1.231 0.135,0.437 0.202,0.799 0.202,1.086 0,0.294 -0.042,0.496 -0.125,0.606 -0.084,0.111 -0.24,0.19 -0.467,0.238 0.137,0.156 0.206,0.294 0.206,0.413 0,0.156 -0.081,0.277 -0.242,0.364 -0.162,0.087 -0.384,0.13 -0.665,0.13 -0.395,0 -0.823,-0.124 -1.284,-0.372 -0.461,-0.249 -0.893,-0.575 -1.298,-0.979 -0.404,-0.404 -0.733,-0.84 -0.987,-1.307 -0.255,-0.467 -0.382,-0.892 -0.382,-1.275 0,-0.473 0.082,-0.901 0.247,-1.284 0.165,-0.383 0.385,-0.686 0.66,-0.907 0.275,-0.222 0.581,-0.332 0.916,-0.332 0.593,0 1.278,0.461 2.056,1.383 0.449,-0.024 0.793,0.024 1.033,0.143 0.239,0.12 0.557,0.36 0.952,0.719 v 0.601 c -0.264,-0.197 -0.434,-0.324 -0.512,-0.381 m -2.029,1.392 c -0.156,-0.393 -0.234,-0.777 -0.234,-1.154 0,-0.258 0.051,-0.527 0.153,-0.808 -0.605,-0.444 -1.036,-0.665 -1.293,-0.665 -0.551,0 -0.826,0.198 -0.826,0.593 0,0.054 0.074,0.416 0.224,1.086 0.084,0.252 0.248,0.502 0.494,0.75 0.245,0.248 0.545,0.494 0.898,0.736 0.353,0.243 0.778,0.514 1.275,0.813 -0.305,-0.509 -0.536,-0.959 -0.691,-1.351 m 7.785,-1.392 c -0.078,-0.057 -0.166,-0.111 -0.265,-0.162 -0.099,-0.051 -0.199,-0.076 -0.301,-0.076 h -0.134 l -0.162,0.161 c 0.234,0.383 0.418,0.794 0.552,1.231 0.135,0.437 0.202,0.799 0.202,1.086 0,0.294 -0.042,0.496 -0.125,0.606 -0.084,0.111 -0.24,0.19 -0.467,0.238 0.137,0.156 0.206,0.294 0.206,0.413 0,0.156 -0.081,0.277 -0.242,0.364 -0.162,0.087 -0.383,0.13 -0.665,0.13 -0.395,0 -0.823,-0.124 -1.284,-0.372 -0.461,-0.249 -0.893,-0.575 -1.297,-0.979 -0.405,-0.404 -0.734,-0.84 -0.988,-1.307 -0.255,-0.467 -0.382,-0.892 -0.382,-1.275 0,-0.473 0.082,-0.901 0.247,-1.284 0.165,-0.383 0.385,-0.686 0.66,-0.907 0.275,-0.222 0.581,-0.332 0.916,-0.332 0.593,0 1.278,0.461 2.056,1.383 0.449,-0.024 0.794,0.024 1.033,0.143 0.239,0.12 0.557,0.36 0.952,0.719 v 0.601 c -0.264,-0.197 -0.434,-0.324 -0.512,-0.381 m -2.029,1.392 c -0.156,-0.393 -0.234,-0.777 -0.234,-1.154 0,-0.258 0.051,-0.527 0.153,-0.808 -0.605,-0.444 -1.036,-0.665 -1.293,-0.665 -0.551,0 -0.826,0.198 -0.826,0.593 0,0.054 0.074,0.416 0.224,1.086 0.084,0.252 0.248,0.502 0.494,0.75 0.245,0.248 0.545,0.494 0.898,0.736 0.353,0.243 0.778,0.514 1.275,0.813 -0.305,-0.509 -0.536,-0.959 -0.691,-1.351 m 5.54,1.827 c -0.527,-1.143 -1.263,-2.529 -2.209,-4.158 -0.114,-0.191 -0.308,-0.483 -0.584,-0.875 -0.275,-0.392 -0.528,-0.78 -0.758,-1.163 -0.231,-0.383 -0.425,-0.789 -0.584,-1.217 -0.159,-0.428 -0.238,-0.839 -0.238,-1.235 0,-0.454 0.129,-0.682 0.386,-0.682 0.06,0 0.165,0.075 0.314,0.224 0.27,0.33 0.485,0.674 0.647,1.033 0.162,0.359 0.361,0.843 0.597,1.45 0.237,0.608 0.454,1.103 0.651,1.487 0.282,-0.168 0.527,-0.252 0.737,-0.252 0.023,0 0.131,0.024 0.323,0.072 0.096,-0.03 0.233,-0.081 0.413,-0.153 0.18,-0.072 0.326,-0.127 0.44,-0.166 0.114,-0.039 0.238,-0.072 0.373,-0.099 0.134,-0.027 0.261,-0.04 0.381,-0.04 0.324,0 0.677,0.108 1.06,0.323 0.383,0.216 0.791,0.503 1.226,0.862 0.434,0.36 0.878,0.743 1.333,1.15 v 0.646 c -1.167,-1.059 -2.098,-1.589 -2.793,-1.589 -0.221,0 -0.437,0.039 -0.646,0.117 0.604,0.55 1.113,1.059 1.526,1.526 0.413,0.467 0.731,0.918 0.952,1.352 0.222,0.434 0.333,0.878 0.333,1.333 0,0.174 -0.026,0.29 -0.077,0.35 -0.051,0.06 -0.16,0.09 -0.328,0.09 -0.263,0 -0.525,-0.057 -0.785,-0.17 -0.261,-0.114 -0.524,-0.268 -0.791,-0.463 -0.266,-0.195 -0.61,-0.464 -1.032,-0.808 -0.422,-0.344 -0.795,-0.642 -1.118,-0.894 0.413,0.785 0.782,1.43 1.109,1.936 0.326,0.505 0.66,0.926 1.001,1.261 0.257,0.258 0.468,0.509 0.633,0.755 0.165,0.245 0.247,0.431 0.247,0.556 0,0.156 -0.102,0.234 -0.305,0.234 -0.407,0 -0.746,-0.098 -1.015,-0.292 -0.269,-0.195 -0.581,-0.528 -0.934,-1.001 -0.353,-0.473 -0.834,-1.111 -1.441,-1.913 -0.608,-0.802 -1.331,-1.658 -2.169,-2.568 v -0.629 c 0.707,0.73 1.748,1.934 3.125,3.61 m -0.099,-3.812 c -0.149,0.015 -0.446,-10e-4 -0.889,-0.049 0.575,0.838 1.133,1.504 1.675,1.998 0.542,0.494 0.962,0.741 1.262,0.741 0.221,0 0.332,-0.111 0.332,-0.333 0,-0.233 -0.145,-0.568 -0.435,-1.005 -0.291,-0.438 -0.732,-0.967 -1.325,-1.59 -0.263,0.144 -0.47,0.223 -0.62,0.238 m 8.114,1.697 c 0.577,0.368 1.007,0.74 1.288,1.114 0.281,0.374 0.422,0.75 0.422,1.127 0,0.257 -0.082,0.45 -0.247,0.579 -0.164,0.129 -0.387,0.193 -0.669,0.193 -0.354,0 -0.754,-0.099 -1.203,-0.296 -0.449,-0.198 -0.902,-0.491 -1.357,-0.88 -0.664,-0.569 -1.142,-1.109 -1.436,-1.621 -0.293,-0.512 -0.44,-1.082 -0.44,-1.711 0,-0.718 0.156,-1.284 0.467,-1.697 0.312,-0.413 0.734,-0.62 1.267,-0.62 0.61,0 1.212,0.217 1.804,0.651 0.592,0.434 1.228,1.058 1.904,1.873 v 0.547 c -0.449,-0.383 -0.829,-0.688 -1.14,-0.915 -0.312,-0.228 -0.624,-0.411 -0.939,-0.548 -0.314,-0.138 -0.618,-0.207 -0.911,-0.207 -0.283,0 -0.509,0.099 -0.683,0.297 -0.173,0.197 -0.26,0.472 -0.26,0.826 v 0.224 c 0.844,0.341 1.555,0.696 2.133,1.064 m -1.657,0.499 c 0.198,0.299 0.42,0.559 0.669,0.781 0.248,0.221 0.494,0.401 0.736,0.539 0.243,0.137 0.418,0.206 0.525,0.206 0.125,0 0.189,-0.069 0.189,-0.206 0,-0.132 -0.091,-0.34 -0.274,-0.624 -0.182,-0.285 -0.465,-0.583 -0.848,-0.894 -0.383,-0.311 -0.844,-0.572 -1.383,-0.781 0.06,0.353 0.188,0.679 0.386,0.979 m 4.984,0.089 c 0.126,0.024 0.305,0.057 0.539,0.099 0.233,0.042 0.453,0.082 0.663,0.122 0.211,0.038 0.399,0.076 0.567,0.112 -0.319,-0.383 -0.603,-0.768 -0.859,-1.154 -0.254,-0.386 -0.446,-0.744 -0.578,-1.073 -0.133,-0.33 -0.198,-0.623 -0.198,-0.88 0,-0.437 0.084,-0.771 0.252,-1.002 0.167,-0.23 0.377,-0.345 0.629,-0.345 0.215,0 0.46,0.088 0.736,0.265 0.275,0.176 0.574,0.414 0.898,0.714 0.323,0.299 0.733,0.709 1.23,1.23 v 0.601 c -0.904,-0.742 -1.539,-1.113 -1.904,-1.113 -0.347,0 -0.52,0.141 -0.52,0.422 0,0.203 0.107,0.506 0.323,0.907 0.214,0.401 0.482,0.772 0.798,1.113 0.27,0.282 0.459,0.496 0.571,0.643 0.111,0.146 0.166,0.282 0.166,0.408 0,0.198 -0.034,0.395 -0.098,0.593 -0.066,0.197 -0.15,0.323 -0.252,0.377 -0.048,0.024 -0.136,0.036 -0.261,0.036 -0.323,0 -1.101,-0.096 -2.335,-0.288 0.186,0.312 0.279,0.518 0.279,0.62 0,0.114 -0.06,0.171 -0.179,0.171 -0.078,0 -0.159,-0.021 -0.243,-0.063 -0.215,-0.084 -0.455,-0.27 -0.718,-0.557 -0.265,-0.287 -0.485,-0.596 -0.665,-0.925 -0.18,-0.329 -0.27,-0.602 -0.27,-0.817 0,-0.192 0.043,-0.335 0.13,-0.431 0.088,-0.096 0.227,-0.177 0.419,-0.242 -0.169,-0.27 -0.413,-0.596 -0.737,-0.979 v -0.584 c 0.707,0.605 1.246,1.278 1.617,2.02 m 4.149,-0.502 c -0.157,-0.198 -0.261,-0.391 -0.315,-0.58 -0.055,-0.188 -0.081,-0.423 -0.081,-0.705 0,-0.389 0.077,-0.764 0.229,-1.126 0.153,-0.363 0.328,-0.658 0.526,-0.885 0.197,-0.228 0.362,-0.341 0.494,-0.341 0.275,0 0.625,0.205 1.05,0.615 0.425,0.41 1.075,1.1 1.949,2.07 -0.342,-0.898 -0.513,-1.584 -0.513,-2.057 0,-0.299 0.05,-0.525 0.149,-0.678 0.099,-0.152 0.265,-0.229 0.499,-0.229 0.652,0 1.736,0.841 3.25,2.524 v 0.547 c -0.893,-0.784 -1.547,-1.176 -1.966,-1.176 -0.408,0 -0.611,0.222 -0.611,0.665 0,0.269 0.057,0.496 0.175,0.682 0.117,0.186 0.32,0.475 0.611,0.867 0.29,0.392 0.434,0.66 0.434,0.803 0,0.072 -0.017,0.154 -0.053,0.247 -0.035,0.093 -0.086,0.214 -0.153,0.364 -0.065,0.15 -0.119,0.272 -0.162,0.368 0.211,0.072 0.357,0.133 0.441,0.184 0.084,0.051 0.126,0.13 0.126,0.238 0,0.066 -0.032,0.168 -0.094,0.306 -0.063,0.137 -0.149,0.258 -0.256,0.363 -0.108,0.105 -0.225,0.157 -0.351,0.157 -0.467,0 -1.128,-0.2 -1.984,-0.601 -0.856,-0.401 -1.739,-1.015 -2.649,-1.841 -0.341,-0.323 -0.59,-0.584 -0.745,-0.781 m 3.169,-0.66 c -0.52,-0.596 -1.095,-1.08 -1.724,-1.451 -0.167,-0.084 -0.284,-0.125 -0.351,-0.125 -0.113,0 -0.203,0.061 -0.268,0.184 -0.067,0.122 -0.099,0.28 -0.099,0.471 0,0.527 0.331,1.039 0.991,1.536 0.662,0.497 1.772,1.101 3.328,1.814 -0.73,-1.024 -1.356,-1.834 -1.877,-2.429 m 6.066,4.409 c -0.254,-0.057 -0.47,-0.166 -0.647,-0.328 -0.176,-0.162 -0.363,-0.41 -0.561,-0.745 -0.245,-0.396 -0.368,-0.692 -0.368,-0.889 0,-0.036 0.012,-0.054 0.036,-0.054 0.023,0 0.067,0.01 0.13,0.031 0.062,0.021 0.131,0.041 0.202,0.059 0.174,0.047 0.436,0.071 0.791,0.071 0.106,0 0.2,-10e-4 0.278,-0.004 0.077,-0.003 0.161,-0.008 0.252,-0.014 -0.893,-1.323 -1.653,-2.248 -2.281,-2.774 v -0.62 c 0.07,0.066 0.143,0.13 0.215,0.193 0.072,0.063 0.139,0.123 0.202,0.18 0.063,0.057 0.132,0.119 0.207,0.188 0.075,0.069 0.153,0.139 0.237,0.211 -0.239,-0.616 -0.405,-1.077 -0.498,-1.383 -0.093,-0.305 -0.139,-0.568 -0.139,-0.79 0,-0.329 0.082,-0.599 0.247,-0.808 0.165,-0.209 0.382,-0.314 0.651,-0.314 0.772,0 1.967,0.877 3.583,2.631 v 0.601 c -0.617,-0.502 -1.109,-0.875 -1.477,-1.118 -0.369,-0.242 -0.666,-0.363 -0.894,-0.363 -0.329,0 -0.493,0.206 -0.493,0.619 0,0.306 0.057,0.629 0.175,0.97 0.116,0.341 0.284,0.717 0.503,1.127 0.217,0.41 0.489,0.876 0.812,1.397 0.168,-0.013 0.31,-0.023 0.427,-0.032 0.116,-0.009 0.232,-0.018 0.345,-0.027 0.114,-0.009 0.254,-0.019 0.421,-0.031 0.516,0.664 0.944,1.314 1.286,1.948 -0.09,0.012 -0.215,0.027 -0.373,0.045 -0.16,0.018 -0.34,0.039 -0.543,0.063 0.13,0.216 0.326,0.482 0.583,0.799 0.257,0.318 0.387,0.512 0.387,0.584 0,0.15 -0.165,0.225 -0.494,0.225 -0.33,0 -0.623,-0.119 -0.88,-0.355 -0.259,-0.237 -0.546,-0.639 -0.862,-1.208 h -0.387 c -0.462,0 -0.818,-0.028 -1.073,-0.085 m 6.991,-0.095 c 0.245,0.312 0.367,0.596 0.367,0.854 0,0.209 -0.059,0.369 -0.178,0.48 -0.12,0.111 -0.27,0.166 -0.45,0.166 -0.269,0 -0.529,-0.162 -0.781,-0.485 -0.251,-0.323 -0.377,-0.617 -0.377,-0.88 0,-0.174 0.068,-0.317 0.201,-0.431 0.136,-0.114 0.278,-0.171 0.428,-0.171 0.28,0 0.545,0.156 0.79,0.467 m -1.495,-5.473 c -0.338,-0.206 -0.648,-0.31 -0.93,-0.31 -0.257,0 -0.466,0.072 -0.629,0.216 -0.162,0.144 -0.241,0.323 -0.241,0.539 0,0.251 0.078,0.476 0.237,0.673 0.159,0.198 0.499,0.548 1.02,1.051 0.185,0.173 0.396,0.464 0.633,0.871 0.236,0.407 0.353,0.706 0.353,0.898 0,0.281 -0.181,0.422 -0.546,0.422 -0.707,0 -1.485,-0.662 -2.335,-1.985 -0.18,-0.293 -0.302,-0.509 -0.369,-0.646 -0.065,-0.138 -0.123,-0.313 -0.17,-0.526 -0.048,-0.212 -0.072,-0.435 -0.072,-0.669 0,-0.61 0.119,-1.173 0.359,-1.688 0.24,-0.515 0.605,-0.772 1.095,-0.772 0.354,0 0.782,0.19 1.285,0.57 0.502,0.38 1.044,0.944 1.626,1.693 v 0.655 c -0.54,-0.455 -0.978,-0.785 -1.316,-0.992 m 3.803,2.479 c 0.401,0.577 0.601,1.016 0.601,1.315 0,0.09 -0.08,0.168 -0.242,0.234 -0.162,0.065 -0.332,0.098 -0.513,0.098 -0.208,0 -0.395,-0.061 -0.56,-0.184 -0.165,-0.122 -0.382,-0.351 -0.651,-0.687 -0.898,-1.113 -1.347,-2.068 -1.347,-2.864 0,-0.593 0.144,-1.136 0.435,-1.63 0.29,-0.494 0.643,-0.741 1.056,-0.741 0.238,0 0.55,0.16 0.934,0.481 0.383,0.32 0.88,0.803 1.49,1.45 0.31,-0.162 0.527,-0.243 0.646,-0.243 0.306,0 0.556,0.048 0.75,0.144 0.195,0.096 0.459,0.275 0.794,0.539 v 0.601 c -0.238,-0.191 -0.437,-0.333 -0.596,-0.426 -0.159,-0.093 -0.304,-0.139 -0.435,-0.139 -0.156,0 -0.309,0.134 -0.458,0.404 0.287,0.371 0.528,0.732 0.727,1.082 0.198,0.35 0.346,0.676 0.449,0.979 0.101,0.302 0.153,0.558 0.153,0.767 0,0.348 -0.133,0.521 -0.395,0.521 -0.168,0 -0.424,-0.191 -0.768,-0.574 -0.346,-0.384 -0.659,-0.83 -0.943,-1.338 -0.285,-0.509 -0.43,-0.958 -0.436,-1.347 -0.993,-1.006 -1.619,-1.509 -1.876,-1.509 -0.27,0 -0.405,0.162 -0.405,0.485 0,0.12 0.012,0.227 0.036,0.323 l 0.162,0.754 c 0.527,0.425 0.99,0.927 1.392,1.505 m 3.681,-0.66 c -0.155,-0.198 -0.26,-0.391 -0.314,-0.58 -0.055,-0.188 -0.08,-0.423 -0.08,-0.705 0,-0.389 0.076,-0.764 0.228,-1.126 0.153,-0.363 0.328,-0.658 0.526,-0.885 0.197,-0.228 0.362,-0.341 0.494,-0.341 0.274,0 0.625,0.205 1.05,0.615 0.425,0.41 1.075,1.1 1.949,2.07 -0.341,-0.898 -0.512,-1.584 -0.512,-2.057 0,-0.299 0.05,-0.525 0.148,-0.678 0.098,-0.152 0.264,-0.229 0.499,-0.229 0.652,0 1.736,0.841 3.25,2.524 v 0.547 c -0.892,-0.784 -1.547,-1.176 -1.966,-1.176 -0.407,0 -0.611,0.222 -0.611,0.665 0,0.269 0.059,0.496 0.174,0.682 0.118,0.186 0.322,0.475 0.612,0.867 0.29,0.392 0.434,0.66 0.434,0.803 0,0.072 -0.016,0.154 -0.052,0.247 -0.037,0.093 -0.087,0.214 -0.153,0.364 -0.066,0.15 -0.12,0.272 -0.162,0.368 0.21,0.072 0.356,0.133 0.44,0.184 0.084,0.051 0.126,0.13 0.126,0.238 0,0.066 -0.031,0.168 -0.094,0.306 -0.064,0.137 -0.149,0.258 -0.256,0.363 -0.108,0.105 -0.226,0.157 -0.351,0.157 -0.466,0 -1.129,-0.2 -1.984,-0.601 -0.856,-0.401 -1.739,-1.015 -2.649,-1.841 -0.341,-0.323 -0.59,-0.584 -0.746,-0.781 m 3.17,-0.66 c -0.52,-0.596 -1.095,-1.08 -1.724,-1.451 -0.167,-0.084 -0.284,-0.125 -0.35,-0.125 -0.114,0 -0.203,0.061 -0.269,0.184 -0.066,0.122 -0.099,0.28 -0.099,0.471 0,0.527 0.331,1.039 0.992,1.536 0.661,0.497 1.771,1.101 3.326,1.814 -0.729,-1.024 -1.355,-1.834 -1.876,-2.429 m 9.455,0.66 c -0.154,-0.198 -0.259,-0.391 -0.313,-0.58 -0.054,-0.188 -0.081,-0.423 -0.081,-0.705 0,-0.389 0.077,-0.764 0.228,-1.126 0.154,-0.363 0.329,-0.658 0.527,-0.885 0.197,-0.228 0.362,-0.341 0.493,-0.341 0.275,0 0.626,0.205 1.051,0.615 0.425,0.41 1.075,1.1 1.949,2.07 -0.342,-0.898 -0.512,-1.584 -0.512,-2.057 0,-0.299 0.049,-0.525 0.148,-0.678 0.098,-0.152 0.264,-0.229 0.498,-0.229 0.653,0 1.737,0.841 3.251,2.524 v 0.547 c -0.892,-0.784 -1.547,-1.176 -1.966,-1.176 -0.408,0 -0.611,0.222 -0.611,0.665 0,0.269 0.058,0.496 0.174,0.682 0.118,0.186 0.321,0.475 0.612,0.867 0.29,0.392 0.435,0.66 0.435,0.803 0,0.072 -0.018,0.154 -0.054,0.247 -0.037,0.093 -0.087,0.214 -0.152,0.364 -0.066,0.15 -0.12,0.272 -0.162,0.368 0.21,0.072 0.356,0.133 0.44,0.184 0.084,0.051 0.126,0.13 0.126,0.238 0,0.066 -0.032,0.168 -0.095,0.306 -0.062,0.137 -0.149,0.258 -0.255,0.363 -0.108,0.105 -0.225,0.157 -0.352,0.157 -0.466,0 -1.128,-0.2 -1.983,-0.601 -0.856,-0.401 -1.739,-1.015 -2.649,-1.841 -0.342,-0.323 -0.59,-0.584 -0.747,-0.781 m 3.17,-0.66 c -0.52,-0.596 -1.094,-1.08 -1.723,-1.451 -0.168,-0.084 -0.284,-0.125 -0.35,-0.125 -0.114,0 -0.204,0.061 -0.269,0.184 -0.066,0.122 -0.099,0.28 -0.099,0.471 0,0.527 0.33,1.039 0.992,1.536 0.66,0.497 1.77,1.101 3.326,1.814 -0.729,-1.024 -1.355,-1.834 -1.877,-2.429 m 11.231,4.409 c -0.255,-0.057 -0.47,-0.166 -0.648,-0.328 -0.176,-0.162 -0.363,-0.41 -0.56,-0.745 -0.246,-0.396 -0.368,-0.692 -0.368,-0.889 0,-0.036 0.011,-0.054 0.036,-0.054 0.023,0 0.067,0.01 0.13,0.031 0.063,0.021 0.13,0.041 0.202,0.059 0.173,0.047 0.436,0.071 0.79,0.071 0.108,0 0.201,-10e-4 0.278,-0.004 0.077,-0.003 0.161,-0.008 0.252,-0.014 -0.892,-1.323 -1.652,-2.248 -2.281,-2.774 v -0.62 c 0.072,0.066 0.143,0.13 0.215,0.193 0.072,0.063 0.139,0.123 0.202,0.18 0.062,0.057 0.132,0.119 0.207,0.188 0.075,0.069 0.154,0.139 0.238,0.211 -0.24,-0.616 -0.406,-1.077 -0.498,-1.383 -0.094,-0.305 -0.14,-0.568 -0.14,-0.79 0,-0.329 0.083,-0.599 0.247,-0.808 0.165,-0.209 0.381,-0.314 0.651,-0.314 0.772,0 1.967,0.877 3.583,2.631 v 0.601 c -0.616,-0.502 -1.109,-0.875 -1.478,-1.118 -0.367,-0.242 -0.666,-0.363 -0.892,-0.363 -0.33,0 -0.494,0.206 -0.494,0.619 0,0.306 0.058,0.629 0.175,0.97 0.117,0.341 0.284,0.717 0.502,1.127 0.219,0.41 0.49,0.876 0.813,1.397 0.168,-0.013 0.31,-0.023 0.427,-0.032 0.117,-0.009 0.232,-0.018 0.345,-0.027 0.114,-0.009 0.255,-0.019 0.423,-0.031 0.515,0.664 0.943,1.314 1.283,1.948 -0.089,0.012 -0.213,0.027 -0.373,0.045 -0.157,0.018 -0.339,0.039 -0.543,0.063 0.133,0.216 0.327,0.482 0.584,0.799 0.258,0.318 0.387,0.512 0.387,0.584 0,0.15 -0.165,0.225 -0.494,0.225 -0.329,0 -0.623,-0.119 -0.88,-0.355 -0.259,-0.237 -0.545,-0.639 -0.862,-1.208 h -0.386 c -0.461,0 -0.819,-0.028 -1.073,-0.085 m 6.02,-5.64 c -0.149,-0.386 -0.224,-0.693 -0.224,-0.92 0,-0.599 0.252,-0.898 0.754,-0.898 0.221,0 0.455,0.075 0.701,0.224 0.245,0.15 0.536,0.372 0.871,0.665 0.335,0.293 0.852,0.763 1.553,1.41 v 0.601 c -0.556,-0.437 -0.969,-0.739 -1.24,-0.907 -0.268,-0.167 -0.505,-0.251 -0.709,-0.251 -0.246,0 -0.367,0.156 -0.367,0.467 0,0.144 0.062,0.358 0.188,0.642 0.126,0.284 0.273,0.546 0.44,0.786 0.311,0.449 0.581,0.838 0.808,1.167 0.228,0.329 0.379,0.555 0.454,0.678 0.075,0.123 0.124,0.223 0.147,0.301 0.025,0.078 0.036,0.18 0.036,0.305 0,0.276 -0.025,0.458 -0.075,0.548 -0.051,0.09 -0.149,0.135 -0.292,0.135 -0.15,0 -0.306,-0.071 -0.468,-0.211 -0.162,-0.141 -0.463,-0.445 -0.906,-0.912 -0.192,-0.203 -0.442,-0.507 -0.75,-0.911 -0.308,-0.404 -0.579,-0.708 -0.813,-0.912 -0.318,-0.269 -0.675,-0.579 -1.073,-0.929 -0.398,-0.35 -0.681,-0.587 -0.848,-0.709 -0.168,-0.123 -0.288,-0.185 -0.36,-0.185 -0.197,0 -0.296,0.129 -0.296,0.387 0,0.185 0.057,0.454 0.171,0.808 0.515,0.389 0.968,0.785 1.36,1.19 0.391,0.404 0.677,0.746 0.852,1.028 0.178,0.281 0.266,0.476 0.266,0.583 0,0.054 -0.087,0.107 -0.26,0.158 -0.175,0.05 -0.356,0.076 -0.549,0.076 -0.263,0 -0.454,-0.026 -0.569,-0.076 -0.117,-0.051 -0.237,-0.149 -0.359,-0.292 -0.123,-0.144 -0.274,-0.321 -0.454,-0.53 -0.299,-0.341 -0.552,-0.647 -0.759,-0.916 -0.206,-0.269 -0.372,-0.519 -0.498,-0.75 -0.126,-0.23 -0.211,-0.441 -0.256,-0.633 -0.045,-0.192 -0.067,-0.407 -0.067,-0.646 0,-0.366 0.051,-0.708 0.157,-1.029 0.104,-0.32 0.253,-0.574 0.444,-0.763 0.192,-0.189 0.401,-0.283 0.629,-0.283 0.287,0 0.657,0.243 1.108,0.728 0.453,0.484 1.113,1.302 1.981,2.451 -0.335,-0.73 -0.578,-1.289 -0.728,-1.675 m 16.595,-0.013 c -0.526,-0.204 -1.134,-0.344 -1.823,-0.422 -0.689,-0.078 -1.571,-0.117 -2.65,-0.117 -1.238,0 -1.857,0.063 -1.857,0.189 0,0.047 0.021,0.085 0.066,0.112 0.045,0.027 0.106,0.054 0.181,0.081 0.073,0.027 0.172,0.064 0.291,0.112 l 0.071,0.036 c 0.025,0.012 0.046,0.027 0.064,0.045 0.017,0.018 0.027,0.036 0.027,0.054 0,0.072 -0.12,0.1 -0.359,0.085 -0.24,-0.015 -0.488,-0.073 -0.746,-0.175 -0.293,-0.132 -0.547,-0.388 -0.763,-0.768 -0.215,-0.38 -0.323,-0.66 -0.323,-0.84 0,-0.401 0.319,-0.7 0.956,-0.898 0.638,-0.197 1.48,-0.296 2.528,-0.296 0.569,0 1.166,0.038 1.792,0.112 0.625,0.075 1.206,0.179 1.741,0.31 0.536,0.132 0.981,0.273 1.333,0.422 0.413,0.186 0.779,0.422 1.097,0.71 0.316,0.287 0.558,0.603 0.723,0.947 0.164,0.344 0.247,0.687 0.247,1.028 0,0.497 -0.21,0.946 -0.629,1.347 -0.419,0.401 -1.064,0.787 -1.931,1.159 -0.604,0.263 -1.29,0.496 -2.056,0.7 -0.766,0.204 -1.262,0.349 -1.486,0.436 -0.225,0.086 -0.338,0.234 -0.338,0.444 0,0.335 0.272,0.665 0.814,0.988 0.541,0.323 1.282,0.584 2.221,0.781 0.941,0.198 1.964,0.296 3.072,0.296 0.365,0 0.548,-0.039 0.548,-0.116 0,-0.048 -0.165,-0.159 -0.495,-0.333 -0.31,-0.155 -0.572,-0.336 -0.786,-0.543 -0.212,-0.206 -0.317,-0.361 -0.317,-0.462 0,-0.048 0.03,-0.072 0.089,-0.072 0.048,0 0.171,0.066 0.369,0.197 0.197,0.132 0.435,0.27 0.714,0.413 0.278,0.144 0.606,0.282 0.983,0.414 0.353,0.137 0.6,0.247 0.74,0.327 0.141,0.081 0.273,0.244 0.396,0.49 0.122,0.245 0.184,0.592 0.184,1.041 0,0.276 -0.235,0.479 -0.706,0.611 -0.469,0.132 -1.135,0.198 -1.998,0.198 -1.442,0 -2.739,-0.186 -3.892,-0.557 -1.152,-0.371 -1.95,-0.805 -2.393,-1.302 -0.275,-0.3 -0.502,-0.714 -0.678,-1.244 -0.177,-0.53 -0.265,-1.058 -0.265,-1.585 0,-0.144 0.051,-0.293 0.153,-0.449 0.102,-0.156 0.197,-0.257 0.286,-0.305 1.049,-0.605 2.177,-0.997 3.387,-1.177 0.406,-0.066 0.797,-0.166 1.171,-0.3 0.374,-0.135 0.711,-0.313 1.011,-0.535 0.299,-0.221 0.523,-0.47 0.673,-0.745 -0.431,-0.359 -0.911,-0.641 -1.437,-0.844 m 7.593,1.818 c 0.578,0.368 1.007,0.74 1.288,1.114 0.282,0.374 0.423,0.75 0.423,1.127 0,0.257 -0.083,0.45 -0.247,0.579 -0.165,0.129 -0.388,0.193 -0.669,0.193 -0.354,0 -0.755,-0.099 -1.204,-0.296 -0.45,-0.198 -0.901,-0.491 -1.356,-0.88 -0.664,-0.569 -1.143,-1.109 -1.436,-1.621 -0.294,-0.512 -0.44,-1.082 -0.44,-1.711 0,-0.718 0.155,-1.284 0.466,-1.697 0.312,-0.413 0.733,-0.62 1.267,-0.62 0.61,0 1.212,0.217 1.805,0.651 0.592,0.434 1.227,1.058 1.903,1.873 v 0.547 c -0.45,-0.383 -0.829,-0.688 -1.14,-0.915 -0.312,-0.228 -0.624,-0.411 -0.939,-0.548 -0.314,-0.138 -0.619,-0.207 -0.912,-0.207 -0.28,0 -0.508,0.099 -0.681,0.297 -0.174,0.197 -0.261,0.472 -0.261,0.826 v 0.224 c 0.844,0.341 1.555,0.696 2.133,1.064 m -1.657,0.499 c 0.198,0.299 0.421,0.559 0.669,0.781 0.248,0.221 0.494,0.401 0.736,0.539 0.243,0.137 0.418,0.206 0.526,0.206 0.125,0 0.188,-0.069 0.188,-0.206 0,-0.132 -0.091,-0.34 -0.275,-0.624 -0.181,-0.285 -0.465,-0.583 -0.847,-0.894 -0.383,-0.311 -0.844,-0.572 -1.383,-0.781 0.059,0.353 0.188,0.679 0.386,0.979 m 4.984,0.089 c 0.126,0.024 0.305,0.057 0.539,0.099 0.232,0.042 0.455,0.082 0.664,0.122 0.21,0.038 0.398,0.076 0.566,0.112 -0.317,-0.383 -0.603,-0.768 -0.858,-1.154 -0.254,-0.386 -0.447,-0.744 -0.579,-1.073 -0.132,-0.33 -0.197,-0.623 -0.197,-0.88 0,-0.437 0.083,-0.771 0.251,-1.002 0.168,-0.23 0.377,-0.345 0.629,-0.345 0.214,0 0.461,0.088 0.736,0.265 0.274,0.176 0.575,0.414 0.897,0.714 0.324,0.299 0.734,0.709 1.231,1.23 v 0.601 c -0.904,-0.742 -1.538,-1.113 -1.904,-1.113 -0.347,0 -0.52,0.141 -0.52,0.422 0,0.203 0.107,0.506 0.322,0.907 0.216,0.401 0.483,0.772 0.8,1.113 0.27,0.282 0.46,0.496 0.569,0.643 0.112,0.146 0.166,0.282 0.166,0.408 0,0.198 -0.031,0.395 -0.097,0.593 -0.067,0.197 -0.151,0.323 -0.252,0.377 -0.048,0.024 -0.134,0.036 -0.26,0.036 -0.323,0 -1.102,-0.096 -2.335,-0.288 0.186,0.312 0.277,0.518 0.277,0.62 0,0.114 -0.058,0.171 -0.178,0.171 -0.078,0 -0.159,-0.021 -0.243,-0.063 -0.215,-0.084 -0.455,-0.27 -0.718,-0.557 -0.263,-0.287 -0.486,-0.596 -0.664,-0.925 -0.18,-0.329 -0.27,-0.602 -0.27,-0.817 0,-0.192 0.043,-0.335 0.13,-0.431 0.087,-0.096 0.226,-0.177 0.418,-0.242 -0.168,-0.27 -0.413,-0.596 -0.736,-0.979 v -0.584 c 0.706,0.605 1.245,1.278 1.616,2.02 m 6.412,0.158 c 0.4,0.577 0.601,1.016 0.601,1.315 0,0.09 -0.081,0.168 -0.243,0.234 -0.162,0.065 -0.333,0.098 -0.511,0.098 -0.21,0 -0.398,-0.061 -0.561,-0.184 -0.165,-0.122 -0.383,-0.351 -0.651,-0.687 -0.899,-1.113 -1.347,-2.068 -1.347,-2.864 0,-0.593 0.145,-1.136 0.435,-1.63 0.29,-0.494 0.641,-0.741 1.054,-0.741 0.241,0 0.552,0.16 0.935,0.481 0.383,0.32 0.88,0.803 1.491,1.45 0.311,-0.162 0.527,-0.243 0.646,-0.243 0.305,0 0.555,0.048 0.75,0.144 0.195,0.096 0.46,0.275 0.795,0.539 v 0.601 c -0.241,-0.191 -0.439,-0.333 -0.597,-0.426 -0.159,-0.093 -0.304,-0.139 -0.437,-0.139 -0.154,0 -0.307,0.134 -0.458,0.404 0.289,0.371 0.531,0.732 0.729,1.082 0.197,0.35 0.347,0.676 0.449,0.979 0.101,0.302 0.152,0.558 0.152,0.767 0,0.348 -0.131,0.521 -0.395,0.521 -0.167,0 -0.423,-0.191 -0.769,-0.574 -0.343,-0.384 -0.657,-0.83 -0.941,-1.338 -0.285,-0.509 -0.431,-0.958 -0.436,-1.347 -0.995,-1.006 -1.62,-1.509 -1.877,-1.509 -0.269,0 -0.404,0.162 -0.404,0.485 0,0.12 0.012,0.227 0.035,0.323 l 0.163,0.754 c 0.526,0.425 0.99,0.927 1.392,1.505 m 7.848,2.994 c 0.245,0.312 0.368,0.596 0.368,0.854 0,0.209 -0.061,0.369 -0.179,0.48 -0.12,0.111 -0.27,0.166 -0.449,0.166 -0.271,0 -0.53,-0.162 -0.782,-0.485 -0.251,-0.323 -0.377,-0.617 -0.377,-0.88 0,-0.174 0.067,-0.317 0.202,-0.431 0.135,-0.114 0.277,-0.171 0.427,-0.171 0.281,0 0.544,0.156 0.79,0.467 m -1.495,-5.473 c -0.338,-0.206 -0.648,-0.31 -0.93,-0.31 -0.257,0 -0.467,0.072 -0.628,0.216 -0.162,0.144 -0.243,0.323 -0.243,0.539 0,0.251 0.08,0.476 0.238,0.673 0.158,0.198 0.499,0.548 1.02,1.051 0.185,0.173 0.396,0.464 0.632,0.871 0.237,0.407 0.355,0.706 0.355,0.898 0,0.281 -0.183,0.422 -0.547,0.422 -0.707,0 -1.485,-0.662 -2.335,-1.985 -0.181,-0.293 -0.304,-0.509 -0.368,-0.646 -0.066,-0.138 -0.123,-0.313 -0.171,-0.526 -0.048,-0.212 -0.072,-0.435 -0.072,-0.669 0,-0.61 0.12,-1.173 0.359,-1.688 0.239,-0.515 0.605,-0.772 1.096,-0.772 0.352,0 0.781,0.19 1.284,0.57 0.503,0.38 1.045,0.944 1.625,1.693 v 0.655 c -0.538,-0.455 -0.977,-0.785 -1.315,-0.992 m 4.768,-0.296 c -0.53,-0.291 -0.983,-0.436 -1.36,-0.436 -0.366,0 -0.662,0.111 -0.889,0.333 -0.228,0.221 -0.343,0.508 -0.343,0.862 0,0.191 0.066,0.374 0.194,0.547 0.129,0.174 0.303,0.346 0.526,0.517 0.221,0.17 0.631,0.465 1.23,0.884 0.072,0.054 0.132,0.077 0.184,0.068 0.051,-0.009 0.075,-0.05 0.075,-0.122 0,-0.042 -0.001,-0.084 -0.004,-0.125 -0.002,-0.042 -0.007,-0.087 -0.012,-0.135 0,-0.168 0.077,-0.251 0.233,-0.251 0.144,0 0.338,0.13 0.584,0.39 0.245,0.261 0.467,0.567 0.664,0.921 0.197,0.353 0.297,0.625 0.297,0.817 0,0.227 -0.075,0.416 -0.225,0.565 -0.15,0.15 -0.333,0.225 -0.548,0.225 -0.299,0 -0.711,-0.163 -1.234,-0.489 -0.524,-0.327 -1.093,-0.789 -1.702,-1.388 -0.516,-0.503 -0.862,-0.913 -1.042,-1.23 -0.18,-0.317 -0.269,-0.68 -0.269,-1.087 0,-0.473 0.078,-0.92 0.233,-1.342 0.156,-0.422 0.371,-0.763 0.646,-1.024 0.276,-0.26 0.578,-0.39 0.908,-0.39 0.335,0 0.677,0.095 1.028,0.287 0.35,0.191 0.727,0.461 1.131,0.808 0.405,0.347 0.927,0.835 1.567,1.464 v 0.601 c -0.718,-0.556 -1.343,-0.98 -1.872,-1.27 m 6.308,5.769 c 0.246,0.312 0.369,0.596 0.369,0.854 0,0.209 -0.061,0.369 -0.18,0.48 -0.12,0.111 -0.269,0.166 -0.449,0.166 -0.269,0 -0.53,-0.162 -0.781,-0.485 -0.252,-0.323 -0.377,-0.617 -0.377,-0.88 0,-0.174 0.067,-0.317 0.202,-0.431 0.134,-0.114 0.276,-0.171 0.426,-0.171 0.282,0 0.545,0.156 0.79,0.467 m -1.495,-5.473 c -0.338,-0.206 -0.648,-0.31 -0.929,-0.31 -0.258,0 -0.467,0.072 -0.629,0.216 -0.161,0.144 -0.242,0.323 -0.242,0.539 0,0.251 0.079,0.476 0.238,0.673 0.157,0.198 0.498,0.548 1.019,1.051 0.186,0.173 0.397,0.464 0.633,0.871 0.237,0.407 0.355,0.706 0.355,0.898 0,0.281 -0.184,0.422 -0.548,0.422 -0.706,0 -1.485,-0.662 -2.335,-1.985 -0.179,-0.293 -0.303,-0.509 -0.368,-0.646 -0.066,-0.138 -0.123,-0.313 -0.171,-0.526 -0.048,-0.212 -0.071,-0.435 -0.071,-0.669 0,-0.61 0.119,-1.173 0.359,-1.688 0.238,-0.515 0.604,-0.772 1.095,-0.772 0.353,0 0.782,0.19 1.285,0.57 0.502,0.38 1.044,0.944 1.625,1.693 v 0.655 c -0.539,-0.455 -0.978,-0.785 -1.316,-0.992 m 6.497,0.629 c -0.078,-0.057 -0.166,-0.111 -0.265,-0.162 -0.099,-0.051 -0.199,-0.076 -0.301,-0.076 h -0.134 l -0.163,0.161 c 0.235,0.383 0.418,0.794 0.553,1.231 0.135,0.437 0.201,0.799 0.201,1.086 0,0.294 -0.041,0.496 -0.125,0.606 -0.084,0.111 -0.239,0.19 -0.466,0.238 0.137,0.156 0.206,0.294 0.206,0.413 0,0.156 -0.08,0.277 -0.243,0.364 -0.161,0.087 -0.382,0.13 -0.665,0.13 -0.394,0 -0.822,-0.124 -1.283,-0.372 -0.461,-0.249 -0.893,-0.575 -1.298,-0.979 -0.403,-0.404 -0.733,-0.84 -0.987,-1.307 -0.255,-0.467 -0.382,-0.892 -0.382,-1.275 0,-0.473 0.082,-0.901 0.247,-1.284 0.164,-0.383 0.385,-0.686 0.659,-0.907 0.276,-0.222 0.582,-0.332 0.916,-0.332 0.594,0 1.279,0.461 2.058,1.383 0.449,-0.024 0.793,0.024 1.031,0.143 0.241,0.12 0.558,0.36 0.952,0.719 v 0.601 c -0.262,-0.197 -0.433,-0.324 -0.511,-0.381 m -2.03,1.392 c -0.155,-0.393 -0.233,-0.777 -0.233,-1.154 0,-0.258 0.051,-0.527 0.152,-0.808 -0.604,-0.444 -1.035,-0.665 -1.293,-0.665 -0.55,0 -0.825,0.198 -0.825,0.593 0,0.054 0.073,0.416 0.224,1.086 0.084,0.252 0.249,0.502 0.494,0.75 0.246,0.248 0.545,0.494 0.897,0.736 0.354,0.243 0.779,0.514 1.276,0.813 -0.305,-0.509 -0.536,-0.959 -0.692,-1.351 m 4.383,-3.601 c 0.202,0.194 0.374,0.425 0.512,0.691 0.137,0.266 0.206,0.484 0.206,0.651 0,0.306 -0.128,0.458 -0.387,0.458 -0.209,0 -0.41,-0.109 -0.605,-0.328 -0.195,-0.218 -0.357,-0.467 -0.485,-0.745 -0.129,-0.278 -0.193,-0.471 -0.193,-0.579 0,-0.138 0.036,-0.246 0.108,-0.323 0.072,-0.078 0.158,-0.117 0.259,-0.117 0.187,0 0.381,0.097 0.585,0.292"
       inkscape:label="eslogan" /></g></svg>